<?xml version="1.0" encoding="utf-8"?>
<!-- Generator: Adobe Illustrator 22.0.1, SVG Export Plug-In . SVG Version: 6.00 Build 0)  -->
<svg version="1.1" id="Capa_1" xmlns="http://www.w3.org/2000/svg" xmlns:xlink="http://www.w3.org/1999/xlink" x="0px" y="0px"
	 viewBox="0 0 2000 2000" style="enable-background:new 0 0 2000 2000;" xml:space="preserve">
<g>
	<path d="M1440.6,1988h131.7c18.2,0,32.9-14.7,32.9-32.9V111.8c0-54.5-44.2-98.8-98.8-98.8H519c-54.5,0-98.8,44.2-98.8,98.8v1843.3
		c0,18.2,14.7,32.9,32.9,32.9h131.7c18.2,0,32.9-14.7,32.9-32.9v-98.8h790v98.8C1407.7,1973.3,1422.4,1988,1440.6,1988z
		 M584.8,1790.5H486v-164.6c0-18.2,14.7-32.9,32.9-32.9h987.5c18.2,0,32.9,14.7,32.9,32.9v164.6H584.8z M1210.2,408h-395V210.5h395
		V408z M782.3,473.8h757.1v131.7H486V473.8H782.3z M486,671.3h1053.3v861.9c-10.5-3.9-21.7-5.9-32.9-6.1H519
		c-11.2,0.1-22.4,2.2-32.9,6.1V671.3z M1539.4,1922.2h-65.8v-65.8h65.8V1922.2z M486,111.8c0-18.2,14.7-32.9,32.9-32.9h987.5
		c18.2,0,32.9,14.7,32.9,32.9V408H1276V177.6c0-18.2-14.7-32.9-32.9-32.9H782.3c-18.2,0-32.9,14.7-32.9,32.9V408H486V111.8z
		 M551.9,1922.2H486v-65.8h65.8V1922.2z"/>
	<rect x="551.9" y="737.2" width="65.8" height="65.8"/>
	<rect x="551.9" y="868.8" width="65.8" height="329.2"/>
</g>
</svg>
