<?xml version="1.0" encoding="utf-8"?>
<!-- Generator: Adobe Illustrator 22.0.1, SVG Export Plug-In . SVG Version: 6.00 Build 0)  -->
<svg version="1.1" id="Capa_1" xmlns="http://www.w3.org/2000/svg" xmlns:xlink="http://www.w3.org/1999/xlink" x="0px" y="0px"
	 viewBox="0 0 2000 2000" style="enable-background:new 0 0 2000 2000;" xml:space="preserve">
<g>
	<path d="M1756.8,24.3H242.5c-17.8,0-32.2,14.4-32.2,32.2v1739.8c0,17.8,14.4,32.2,32.2,32.2h41.9v141.8h64.4v-141.8h1301.7v148.2
		h64.4v-148.2h41.9c17.8,0,32.2-14.4,32.2-32.2V56.5C1789,38.7,1774.6,24.3,1756.8,24.3z M1724.6,1764.1H348.8h-64.4h-9.7V449.6
		h1449.9V1764.1z M1724.6,385.1H274.7V88.7h1449.9L1724.6,385.1L1724.6,385.1z"/>
	<path d="M999.6,1641.7c284.3,0,515.5-231.3,515.5-515.5s-231.2-515.5-515.5-515.5s-515.5,231.3-515.5,515.5
		S715.4,1641.7,999.6,1641.7z M999.6,675.1c248.7,0,451.1,202.3,451.1,451.1c0,248.7-202.4,451.1-451.1,451.1
		s-451.1-202.3-451.1-451.1C548.6,877.4,750.9,675.1,999.6,675.1z"/>
	<path d="M999.6,1480.6c190.1,0,344.7-154.7,344.7-344.7s-154.7-344.7-344.7-344.7s-344.7,154.7-344.7,344.7
		S809.5,1480.6,999.6,1480.6z M999.6,855.5c49.9,0,96.8,13.2,137.4,36.1l-179.7,179.7l45.6,45.6l186.9-186.9
		c55.4,51.2,90.2,124.5,90.2,205.8c0,154.6-125.8,280.3-280.3,280.3c-37.9,0-74.1-7.6-107.1-21.3l281.3-281.3l-45.6-45.6l-294,294
		c-69.6-51.1-114.9-133.4-114.9-226.1C719.3,981.3,845.1,855.5,999.6,855.5z"/>
	<path d="M451.9,340c60.4,0,109.5-49.1,109.5-109.5s-49.1-109.5-109.5-109.5s-109.6,49.1-109.6,109.5
		C342.4,290.9,391.5,340,451.9,340z M451.9,185.4c24.9,0,45.1,20.2,45.1,45.1c0,24.9-20.2,45.1-45.1,45.1
		c-24.9,0-45.1-20.2-45.1-45.1S427,185.4,451.9,185.4z"/>
	<rect x="1334.7" y="153.1" width="302.9" height="64.4"/>
	<rect x="1186.5" y="249.8" width="444.6" height="64.4"/>
</g>
</svg>
