<?xml version="1.0" encoding="utf-8"?>
<!-- Generator: Adobe Illustrator 22.0.1, SVG Export Plug-In . SVG Version: 6.00 Build 0)  -->
<svg version="1.1" id="Capa_1" xmlns="http://www.w3.org/2000/svg" xmlns:xlink="http://www.w3.org/1999/xlink" x="0px" y="0px"
	 viewBox="0 0 2000 2000" style="enable-background:new 0 0 2000 2000;" xml:space="preserve">
<g>
	<g transform="translate(-17.000000, -49.000000)">
		<path d="M148.1,288h1262.7c60.1,0,108.9,48.7,108.9,108.9s-48.7,108.9-108.9,108.9H148.1C88,505.7,39.3,457,39.3,396.9
			S88,288,148.1,288z M148.1,1594.3h1001.5c60.1,0,108.9,48.7,108.9,108.9c0,60.1-48.7,108.9-108.9,108.9H148.1
			c-60.1,0-108.9-48.7-108.9-108.9C39.3,1643,88,1594.3,148.1,1594.3z M148.1,941.1h1741.7c60.1,0,108.9,48.7,108.9,108.9
			c0,60.1-48.7,108.9-108.9,108.9H148.1c-60.1,0-108.9-48.7-108.9-108.9C39.3,989.9,88,941.1,148.1,941.1z"/>
	</g>
</g>
</svg>
