<?xml version="1.0" encoding="utf-8"?>
<!-- Generator: Adobe Illustrator 22.0.1, SVG Export Plug-In . SVG Version: 6.00 Build 0)  -->
<svg version="1.1" id="Capa_1" xmlns="http://www.w3.org/2000/svg" xmlns:xlink="http://www.w3.org/1999/xlink" x="0px" y="0px"
	 viewBox="0 0 2000 2000" style="enable-background:new 0 0 2000 2000;" xml:space="preserve">
<g transform="translate(0,-952.36218)">
	<path d="M551.1,1083.9c2.7,0.1,5.5,0.4,8.2,1l600.5,130.9c20.4,4.5,35,22.5,35,43.4v1370.7c0,20.2-13.6,37.8-33.1,43l-600.5,159
		c-23.7,6.3-48-7.9-54.3-31.6c-1-3.7-1.5-7.5-1.5-11.3V1128.4c0-24.5,19.9-44.4,44.4-44.4C550.2,1083.9,550.7,1083.9,551.1,1083.9
		L551.1,1083.9z M594.2,1183.5v1547.7l511.6-135.5V1295L594.2,1183.5z"/>
	<path d="M1628.8,1016.8v1830.7h72.9c23.5-0.3,45.1,21,45.1,44.4c0,23.5-21.6,44.8-45.1,44.4H315.3c-23.5,0.3-45.1-21-45.1-44.4
		c0-23.5,21.6-44.8,45.1-44.4h73.6V1016.8c0-23.3,21.2-44.4,44.4-44.4h1151C1610.7,972.3,1628.3,996.8,1628.8,1016.8z M1540,1061.2
		H477.8v1786.3H1540V1061.2z"/>
</g>
</svg>
