<?xml version="1.0" encoding="utf-8"?>
<!-- Generator: Adobe Illustrator 22.0.1, SVG Export Plug-In . SVG Version: 6.00 Build 0)  -->
<svg version="1.1" id="Capa_1" xmlns="http://www.w3.org/2000/svg" xmlns:xlink="http://www.w3.org/1999/xlink" x="0px" y="0px"
	 viewBox="0 0 2000 2000" style="enable-background:new 0 0 2000 2000;" xml:space="preserve">
<g>
	<g>
		<path d="M145.7,1975.2c-22.4,0-40.6-18.2-40.6-40.6V180.1c0-84.5,68.8-153.3,153.3-153.3h229.8c77.8,0,151.1,30.2,206.2,85.1
			L904.9,321c15.9,15.8,16,41.5,0.2,57.4c-15.8,15.9-41.5,16-57.4,0.2L637.3,169.5c-39.9-39.6-92.8-61.5-149-61.5H258.4
			c-39.8,0-72.1,32.3-72.1,72.1v1754.4C186.3,1957,168.1,1975.2,145.7,1975.2z"/>
	</g>
	<g>
		<path d="M952.8,1041.7c-15.1,0-30.4-3-45.2-9.2c-44.3-18.3-71.8-59.5-71.8-107.4V427.3c0-64.1,52.2-116.3,116.3-116.3h497.9
			c47.9,0,89.1,27.5,107.4,71.8c18.3,44.3,8.7,92.8-25.2,126.7l-497.9,497.9C1011.7,1029.9,982.7,1041.7,952.8,1041.7z M952,392.2
			c-19.4,0-35.1,15.8-35.1,35.1v497.9c0,21.8,16.6,30.3,21.7,32.4c5.1,2.1,22.9,7.8,38.3-7.6l497.9-497.9
			c15.4-15.4,9.7-33.2,7.6-38.3c-2.1-5.1-10.7-21.7-32.4-21.7H952z"/>
	</g>
	<g>
		<path d="M1249.3,1171.1c-10.4,0-20.8-4-28.7-11.9l-88.9-88.9c-15.9-15.8-15.9-41.5,0-57.4s41.5-15.9,57.4,0l88.9,88.9
			c15.9,15.8,15.9,41.5,0,57.4C1270.1,1167.1,1259.7,1171.1,1249.3,1171.1z"/>
	</g>
	<g>
		<path d="M1489,1410.7c-10.4,0-20.8-4-28.7-11.9l-88.9-88.9c-15.9-15.9-15.9-41.5,0-57.4s41.5-15.9,57.4,0l88.9,88.9
			c15.9,15.9,15.9,41.5,0,57.4C1509.8,1406.8,1499.4,1410.7,1489,1410.7z"/>
	</g>
	<g>
		<path d="M1434.5,994.7c-10.4,0-20.8-4-28.7-11.9l-88.9-88.9c-15.9-15.9-15.9-41.6,0-57.4c15.9-15.9,41.5-15.9,57.4,0l88.9,88.9
			c15.9,15.9,15.9,41.6,0,57.4C1455.3,990.7,1444.9,994.7,1434.5,994.7z"/>
	</g>
	<g>
		<path d="M1674.2,1234.4c-10.4,0-20.8-4-28.7-11.9l-88.9-88.9c-15.9-15.9-15.9-41.5,0-57.4s41.5-15.9,57.4,0l88.9,88.9
			c15.9,15.9,15.9,41.5,0,57.4C1695,1230.4,1684.6,1234.4,1674.2,1234.4z"/>
	</g>
	<g>
		<path d="M1614.6,805.8c-10.4,0-20.8-4-28.7-11.9L1497,705c-15.9-15.8-15.9-41.5,0-57.4s41.5-15.9,57.4,0l88.9,88.9
			c15.9,15.8,15.9,41.5,0,57.4C1635.4,801.8,1625,805.8,1614.6,805.8z"/>
	</g>
	<g>
		<path d="M1854.3,1045.4c-10.4,0-20.8-4-28.7-11.9l-88.9-88.9c-15.9-15.9-15.9-41.5,0-57.4s41.5-15.9,57.4,0l88.9,88.9
			c15.9,15.9,15.9,41.5,0,57.4C1875.1,1041.5,1864.7,1045.4,1854.3,1045.4z"/>
	</g>
</g>
</svg>
